<?xml version="1.0" encoding="utf-8"?>
<!-- Generator: Adobe Illustrator 21.0.2, SVG Export Plug-In . SVG Version: 6.00 Build 0)  -->
<svg version="1.1" id="Layer_1" xmlns="http://www.w3.org/2000/svg" xmlns:xlink="http://www.w3.org/1999/xlink" x="0px" y="0px"
	 viewBox="0 0 24 24" style="enable-background:new 0 0 24 24;" xml:space="preserve">
<style type="text/css">
	.st0{fill:none;}
</style>
<g id="Filled_Icons_1_">
	<g>
		<path d="M23,23.4l-3.1-10.2c-1.3,2-2.7,3.7-3.1,4.3C16.5,17.8,16,18,15.6,18c-0.4,0-0.9-0.2-1.2-0.5C13.5,16.4,9,10.8,9,7.6
			C9,4,12,1,15.6,1c0.2,0,0.4,0,0.6,0L16,0.4C15.9,0.1,15.7,0,15.5,0H12v1c0,0.3-0.2,0.5-0.5,0.5S11,1.3,11,1V0H7.5
			C7.3,0,7.1,0.1,7,0.4l-7,23c0,0.2,0,0.3,0.1,0.4C0.2,23.9,0.3,24,0.5,24H11v-3c0-0.3,0.2-0.5,0.5-0.5S12,20.7,12,21v3h10.5
			c0.2,0,0.3-0.1,0.4-0.2C23,23.7,23,23.5,23,23.4z M12,18c0,0.3-0.2,0.5-0.5,0.5S11,18.3,11,18v-2c0-0.3,0.2-0.5,0.5-0.5
			S12,15.7,12,16V18z"/>
		<path d="M10,7.6c0,3,5,9,5.2,9.2c0.1,0.1,0.2,0.2,0.4,0.2s0.3-0.1,0.4-0.2c0.2-0.3,5.2-6.3,5.2-9.2c0-3.1-2.5-5.6-5.6-5.6
			C12.5,2,10,4.5,10,7.6z M18,7.6c0,1.3-1.1,2.4-2.4,2.4c-1.3,0-2.4-1.1-2.4-2.4c0-1.3,1.1-2.4,2.4-2.4C16.9,5.2,18,6.3,18,7.6z"/>
	</g>
</g>
<g id="invisible_shape">
	<rect class="st0" width="24" height="24"/>
</g>
</svg>
