<?xml version="1.0" encoding="UTF-8"?>
<svg version="1.1" viewBox="0 0 24 24" xmlns="http://www.w3.org/2000/svg" xmlns:xlink="http://www.w3.org/1999/xlink">
    <!--Generated by IJSVG (https://github.com/curthard89/IJSVG)-->
    <g fill="#000000">
        <path d="M23.806,22.391l-10.293,-10.293l10.292,-10.293c0.391,-0.39 0.391,-1.023 0,-1.414c-0.391,-0.391 -1.023,-0.391 -1.414,-5.55112e-17l-10.292,10.293l-10.294,-10.294c-0.391,-0.39 -1.023,-0.39 -1.414,-5.55112e-16c-0.391,0.391 -0.391,1.023 5.55112e-17,1.414l10.294,10.294l-10.294,10.294c-0.39,0.39 -0.391,1.024 0,1.414c0.391,0.391 1.024,0.39 1.414,0l10.294,-10.294l10.293,10.292c0.39,0.391 1.023,0.391 1.414,0c0.391,-0.39 0.39,-1.023 0,-1.413Z" transform="translate(-0.099, -0.098)"></path>
    </g>
    <path fill="none" d="M0,0h24v24h-24Z"></path>
</svg>