<?xml version="1.0" encoding="UTF-8"?>
<!DOCTYPE svg PUBLIC "-//W3C//DTD SVG 1.1//EN" "http://www.w3.org/Graphics/SVG/1.1/DTD/svg11.dtd">
<!-- Creator: CorelDRAW X7 -->
<svg xmlns="http://www.w3.org/2000/svg" xml:space="preserve" width="800px" height="800px" version="1.1" style="shape-rendering:geometricPrecision; text-rendering:geometricPrecision; image-rendering:optimizeQuality; fill-rule:evenodd; clip-rule:evenodd"
viewBox="0 0 800 800"
 xmlns:xlink="http://www.w3.org/1999/xlink">
 <defs>
  <style type="text/css">
   <![CDATA[
    .fil0 {fill:#3C3C3C}
   ]]>
  </style>
 </defs>
 <g id="Warstwa_x0020_1">
  <metadata id="CorelCorpID_0Corel-Layer"/>
  <path class="fil0" d="M800 400c0,-221 -179,-400 -400,-400 -221,0 -400,179 -400,400 0,117 50,222 130,295l-1 0 13 11c1,1 2,1 3,2 7,6 14,11 21,16 3,2 5,4 7,5 8,6 16,11 24,16 2,1 4,2 6,3 9,5 18,10 27,14 1,0 1,1 2,1 30,14 63,24 97,31 1,0 2,0 3,0 10,2 21,3 31,4 2,0 3,0 4,1 11,0 22,1 33,1 11,0 22,-1 32,-1 2,-1 3,-1 4,-1 11,-1 22,-2 32,-4 1,0 2,0 3,0 33,-6 65,-17 95,-30 1,-1 2,-1 3,-2 9,-4 18,-9 27,-13 2,-2 4,-3 6,-4 8,-5 16,-10 23,-15 3,-1 6,-3 8,-5 7,-5 13,-10 19,-15 1,-1 3,-2 4,-3l13 -11 0 0c80,-73 131,-179 131,-296zm-771 0c0,-205 166,-371 371,-371 205,0 371,166 371,371 0,110 -48,209 -125,277 -4,-3 -9,-5 -13,-8l-123 -61c-11,-6 -18,-17 -18,-29l0 -43c3,-4 6,-8 9,-12 16,-22 29,-48 38,-74 18,-9 30,-28 30,-48l0 -52c0,-13 -4,-25 -13,-34l0 -68c1,-8 4,-50 -27,-86 -27,-30 -70,-46 -129,-46 -59,0 -102,16 -129,46 -31,36 -28,78 -27,86l0 68c-9,9 -13,21 -13,34l0 52c0,16 7,31 19,41 12,46 36,81 45,93l0 42c0,12 -6,22 -17,28l-115 63c-3,2 -7,4 -11,7 -75,-68 -123,-167 -123,-276z"/>
  <g id="_2191043245776">
  </g>
  <g id="_2191043260976">
  </g>
  <g id="_2191043260560">
  </g>
  <g id="_2191043259824">
  </g>
  <g id="_2191043260848">
  </g>
  <g id="_2191043257872">
  </g>
  <g id="_2191043258256">
  </g>
  <g id="_2191043258352">
  </g>
  <g id="_2191043257424">
  </g>
  <g id="_2191043258928">
  </g>
  <g id="_2191043258480">
  </g>
  <g id="_2191043257520">
  </g>
  <g id="_2191043256528">
  </g>
  <g id="_2191043255248">
  </g>
  <g id="_2191043257200">
  </g>
  <path class="fil0" d="M2377 50l0 -84c0,0 4,-37 -22,-65 -23,-24 -61,-36 -115,-36 -54,0 -92,12 -115,37 -26,28 -22,64 -22,64l0 2 0 82 -5 5c-5,4 -8,11 -8,18l0 52c0,8 4,16 12,21l5 3 1 6c13,52 47,91 47,91l4 5 0 53c0,23 -13,44 -35,55l-123 63 -2 1c1,1 2,1 2,2 7,5 14,9 21,13 3,2 5,3 7,5 8,4 16,9 24,13 1,0 2,1 3,1 9,5 18,9 27,12l0 0c9,4 19,8 29,11l2 0c20,7 40,12 61,15l1 0c10,2 20,3 29,3 2,1 4,1 6,1 9,1 19,1 29,1 10,0 20,0 29,-1 2,0 4,0 6,-1 9,0 19,-1 29,-3l1 0c10,-2 20,-4 30,-6l1 0c10,-2 20,-5 29,-8l2 -1c19,-6 37,-13 55,-22 2,0 3,-1 5,-2 8,-4 15,-8 22,-12 3,-2 6,-3 8,-5 6,-4 11,-7 17,-11 2,-1 3,-2 5,-3 -1,-1 -2,-1 -2,-2l-133 -62c-22,-11 -36,-32 -36,-56l0 -55 4 -4c3,-4 7,-8 11,-14 17,-22 30,-47 39,-74l3 -7 7 -3c11,-3 19,-12 19,-23l0 -52c0,-7 -3,-14 -9,-18l-5 -5z"/>
 </g>
</svg>
