<?xml version="1.0" encoding="UTF-8"?>
<!DOCTYPE svg PUBLIC "-//W3C//DTD SVG 1.1//EN" "http://www.w3.org/Graphics/SVG/1.1/DTD/svg11.dtd">
<!-- Creator: CorelDRAW X7 -->
<svg xmlns="http://www.w3.org/2000/svg" xml:space="preserve" width="911px" height="122px" version="1.1" style="shape-rendering:geometricPrecision; text-rendering:geometricPrecision; image-rendering:optimizeQuality; fill-rule:evenodd; clip-rule:evenodd"
viewBox="0 0 911 121"
 xmlns:xlink="http://www.w3.org/1999/xlink">
 <defs>
  <style type="text/css">
   <![CDATA[
    .fil0 {fill:white}
   ]]>
  </style>
 </defs>
 <g id="Warstwa_x0020_1">
  <metadata id="CorelCorpID_0Corel-Layer"/>
  <polygon class="fil0" points="90,120 90,48 57,79 23,48 23,120 0,120 0,3 8,3 57,47 105,3 113,3 113,119 90,119 "/>
  <polygon class="fil0" points="143,119 143,3 167,3 167,119 "/>
  <path class="fil0" d="M269 98l-49 0 -11 21 -26 0 60 -116 7 0 55 116 -26 0 -10 -21zm-11 -23l-12 -26 -14 26 26 0 0 0z"/>
  <path class="fil0" d="M347 70c-4,-1 -11,-3 -18,-7 -9,-6 -14,-15 -15,-26 0,-10 3,-18 9,-24 8,-9 21,-12 27,-12 17,0 26,6 35,12l3 2 -12 20 -4 -3c-7,-4 -12,-7 -22,-7 -2,0 -8,1 -11,4 -1,1 -2,3 -2,6 1,6 5,10 15,12 2,1 3,1 4,1 11,4 19,9 25,16 6,6 10,14 10,23 0,8 -4,16 -10,23 -7,7 -16,12 -26,12 -6,0 -13,-1 -21,-3 -10,-3 -20,-9 -28,-18l17 -16c13,13 26,13 32,13 9,0 12,-8 12,-11 0,-7 -7,-13 -19,-17l0 0 -1 0z"/>
  <polygon class="fil0" points="490,3 490,26 457,26 457,120 434,120 434,26 402,26 402,3 "/>
  <path class="fil0" d="M699 78l-48 0 -16 41 -10 0 48 -119 5 0 47 120 -9 0 -17 -42zm-45 -8l43 0 -17 -43c-1,-3 -2,-8 -4,-14 -2,6 -3,10 -5,14l-17 43z"/>
  <path class="fil0" d="M814 35c0,11 -4,20 -12,26 -8,6 -19,9 -33,9l-19 0 0 50 -8 0 0 -119 29 0c28,0 43,11 43,34zm-64 28l17 0c13,0 23,-2 29,-6 6,-5 9,-12 9,-22 0,-9 -3,-16 -9,-20 -5,-5 -14,-7 -26,-7l-20 0 0 55 0 0z"/>
  <path class="fil0" d="M911 35c0,11 -4,20 -12,26 -7,6 -19,9 -33,9l-18 0 0 50 -8 0 0 -119 29 0c28,0 42,11 42,34zm-63 28l16 0c13,0 23,-2 29,-6 6,-5 9,-12 9,-22 0,-9 -3,-16 -9,-20 -5,-5 -14,-7 -26,-7l-19 0 0 55 0 0z"/>
  <path class="fil0" d="M556 121c33,0 60,-27 60,-60 0,-33 -27,-60 -60,-60 -33,0 -60,27 -60,60 0,33 27,60 60,60zm36 -60c0,20 -16,37 -36,37 -20,0 -37,-17 -37,-37 0,-20 17,-36 37,-36 20,0 36,16 36,36z"/>
  <path class="fil0" d="M556 77c9,0 15,-7 15,-16 0,-9 -6,-15 -15,-15 -9,0 -16,6 -16,15 0,9 7,16 16,16z"/>
 </g>
</svg>
