<svg xmlns="http://www.w3.org/2000/svg" xmlns:xlink="http://www.w3.org/1999/xlink" xmlns:fi="http://pattern.flaticon.com/" x="0" y="0" width="1600" height="800" viewBox="0 0 1600 800"><rect x="0px" y="0px" width="100%" height="100%" opacity="1" fill="#2ac876"/><defs><g transform="matrix(0.11518651666198688 -0.04799438305009559 0.04799438305009559 0.11518651666198688 192.22568967370688 300.79881379535584)" id="L1_2"><path d="M187.648,426.667c-23.526,0-42.667,19.14-42.667,42.667c0,23.526,19.14,42.667,42.667,42.667     c23.526,0,42.667-19.14,42.667-42.667C230.315,445.807,211.174,426.667,187.648,426.667z M187.648,494.933     c-14.114,0-25.6-11.486-25.6-25.6s11.486-25.6,25.6-25.6s25.6,11.486,25.6,25.6S201.762,494.933,187.648,494.933z" fill="#2edb82"/><path d="M187.904,460.8h-0.085c-4.71,0-8.491,3.823-8.491,8.533s3.857,8.533,8.576,8.533s8.533-3.823,8.533-8.533     S192.623,460.8,187.904,460.8z" fill="#2edb82"/><path d="M102.315,256H85.248c-4.71,0-8.533,3.823-8.533,8.533c0,4.71,3.823,8.533,8.533,8.533h17.067     c4.702,0,8.533,3.831,8.533,8.533v187.733c0,4.71,3.823,8.533,8.533,8.533c4.71,0,8.533-3.823,8.533-8.533V281.6     C127.915,267.486,116.429,256,102.315,256z" fill="#2edb82"/><path d="M409.515,358.4h-25.6v-8.533c0-4.71-3.823-8.533-8.533-8.533s-8.533,3.823-8.533,8.533v8.533h-17.067v-8.533     c0-4.71-3.823-8.533-8.533-8.533s-8.533,3.823-8.533,8.533v8.533h-17.067v-8.533c0-4.71-3.823-8.533-8.533-8.533     s-8.533,3.823-8.533,8.533v8.533h-17.067v-59.733c0-4.71-3.823-8.533-8.533-8.533H153.515c-4.71,0-8.533,3.823-8.533,8.533     s3.823,8.533,8.533,8.533h110.933v59.733c0,4.71,3.823,8.533,8.533,8.533h128V460.8h-25.6c-0.486,0-0.913,0.196-1.374,0.282     c-0.606,0.102-1.229,0.12-1.792,0.358c-3.14,1.263-5.367,4.301-5.367,7.893c0,0.23,0.111,0.418,0.128,0.648l-0.128,33.451     c-0.017,4.71,3.789,8.55,8.499,8.567h0.034c4.693,0,8.516-3.797,8.533-8.499l0.102-25.634h25.498c4.71,0,8.533-3.823,8.533-8.533     v-102.4C418.048,362.223,414.225,358.4,409.515,358.4z" fill="#2edb82"/><path d="M435.106,194.517c-0.913-95.13-76.399-172.553-170.658-177.024v-8.96c0-4.71-3.823-8.533-8.533-8.533     c-4.71,0-8.533,3.823-8.533,8.533v8.969c-94.839,4.497-170.667,82.833-170.667,178.765c0,4.181,3.038,7.757,7.168,8.422     c4.096,0.614,8.141-1.758,9.463-5.726c0.068-0.196,6.903-19.763,34.569-19.763c27.204,0,34.304,19.038,34.569,19.763     c1.169,3.49,4.42,5.837,8.098,5.837c3.678,0,6.938-2.347,8.098-5.837c0.068-0.196,6.904-19.763,34.569-19.763     c23.859,0,32.256,14.635,34.133,18.722v66.611c0,4.71,3.823,8.533,8.533,8.533c4.71,0,8.533-3.823,8.533-8.533v-66.62     c1.852-4.053,10.172-18.714,34.133-18.714c27.204,0,34.304,19.038,34.568,19.763c1.169,3.49,4.42,5.837,8.098,5.837     s6.938-2.347,8.098-5.837c0.068-0.196,6.904-19.763,34.569-19.763c27.093,0,34.253,18.884,34.594,19.84     c1.195,3.482,4.471,5.76,8.064,5.76h0.128c4.702,0.41,8.585-3.797,8.585-8.533C435.285,195.669,435.226,195.081,435.106,194.517z      M383.915,162.133c-22.263,0-35.362,9.421-42.667,17.954c-7.296-8.533-20.403-17.954-42.667-17.954     c-22.263,0-35.371,9.421-42.667,17.954c-7.296-8.533-20.403-17.954-42.667-17.954c-22.263,0-35.362,9.421-42.667,17.954     c-7.296-8.533-20.403-17.954-42.667-17.954c-14.114,0-24.542,3.78-32.145,8.73c10.615-67.166,62.626-120.687,128.99-133.658     c-19.558,18.091-43.938,50.799-54.042,106.334c-0.845,4.634,2.236,9.079,6.869,9.924c0.521,0.094,1.033,0.137,1.536,0.137     c4.045,0,7.637-2.884,8.388-7.006c11.529-63.377,42.607-93.619,59.87-105.958v104.431c0,4.71,3.823,8.533,8.533,8.533     c4.71,0,8.533-3.823,8.533-8.533V40.738c17.254,12.476,48.435,42.948,59.87,105.856c0.751,4.122,4.344,7.006,8.388,7.006     c0.503,0,1.024-0.043,1.536-0.137c4.634-0.845,7.714-5.291,6.869-9.924c-10.104-55.535-34.483-88.243-54.042-106.334     c66.364,12.971,118.374,66.492,128.99,133.658C408.457,165.914,398.029,162.133,383.915,162.133z" fill="#2edb82"/><path d="M341.248,460.8h-85.333c-4.71,0-8.533,3.823-8.533,8.533s3.823,8.533,8.533,8.533h85.333c4.71,0,8.533-3.823,8.533-8.533     S345.958,460.8,341.248,460.8z" fill="#2edb82"/><path d="M392.448,290.133h-85.333c-4.71,0-8.533,3.823-8.533,8.533s3.823,8.533,8.533,8.533h85.333     c4.787,0,8.533,3.746,8.533,8.533V332.8c0,4.71,3.823,8.533,8.533,8.533c4.71,0,8.533-3.823,8.533-8.533v-17.067     C418.048,301.619,406.562,290.133,392.448,290.133z" fill="#2edb82"/></g><g transform="matrix(0.08620841594504423 0.04537285146985292 -0.04537285146985292 0.08620841594504423 127.5456458261809 122.314555449278)" id="L1_5"><path d="M76.804,494.933H8.538c-4.719,0-8.533,3.823-8.533,8.533S3.819,512,8.538,512h68.267c4.719,0,8.533-3.823,8.533-8.533     S81.523,494.933,76.804,494.933z" fill="#2edb82"/><path d="M460.804,264.533c18.825,0,34.133-15.309,34.133-34.133v-17.067c0-9.412-7.663-17.067-17.067-17.067h-20.036     c-4.079-24.457-12.467-47.599-24.994-69.009c6.665-6.229,10.897-15.036,10.897-24.858V85.333c0-9.412-7.663-17.067-17.067-17.067     h-45.73c-24.226-18.679-52.463-31.71-82.27-38.05v-13.15C298.671,7.654,291.017,0,281.604,0h-51.2     c-9.412,0-17.067,7.654-17.067,17.067v13.15c-29.807,6.34-58.044,19.371-82.27,38.05h-45.73c-9.412,0-17.067,7.654-17.067,17.067     V102.4c0,9.822,4.233,18.628,10.897,24.858c-12.527,21.41-20.915,44.552-24.994,69.009H34.138     c-9.412,0-17.067,7.654-17.067,17.067V230.4c0,18.825,15.309,34.133,34.133,34.133h3.012     c4.608,27.401,14.771,53.606,29.85,76.928c-8.815,0.666-15.795,7.962-15.795,16.939v17.067c0,18.825,15.309,34.133,34.133,34.133     h17.067c8.823,0,16.802-3.456,22.869-8.969c9.037,6.042,18.577,11.349,28.493,15.889l-31.531,78.413h-28.365     c-4.719,0-8.533,3.823-8.533,8.533s3.814,8.533,8.533,8.533h34.108c0.009,0,0.017,0.009,0.026,0.009     c0.009,0,0.017-0.009,0.026-0.009h221.816c0.009,0,0.017,0.009,0.026,0.009s0.017-0.009,0.026-0.009h85.308     c4.719,0,8.533-3.823,8.533-8.533s-3.814-8.533-8.533-8.533h-79.582l-31.795-78.285c10.01-4.565,19.644-9.916,28.774-16.017     c6.067,5.513,14.046,8.969,22.869,8.969h17.067c18.825,0,34.133-15.309,34.133-34.133V358.4c0-8.977-6.98-16.273-15.795-16.939     c15.078-23.322,25.242-49.527,29.85-76.928H460.804z M375.471,85.333h51.2V102.4c0,6.767-3.994,12.578-9.719,15.334     c-0.017,0.008-0.034,0.008-0.051,0.017c-0.008,0.009-0.008,0.017-0.017,0.026c-2.21,1.05-4.659,1.69-7.279,1.69h-17.067     c-9.412,0-17.067-7.654-17.067-17.067V85.333z M392.538,136.533h17.067c2.85,0,5.581-0.452,8.235-1.118     c11.153,18.918,18.799,39.313,22.733,60.851h-13.901c-9.412,0-17.067,7.654-17.067,17.067v8.533H297.801     c-1.101-5.436-3.268-10.487-6.238-14.959l78.78-78.78C376.333,133.291,384.03,136.533,392.538,136.533z M296.085,47.087     c23.416,5.103,45.747,14.746,65.587,28.288c-2.039,2.807-3.268,6.229-3.268,9.958V102.4c0,4.028,0.828,7.834,2.108,11.426     l-81.016,81.016c-4.48-2.97-9.523-5.137-14.959-6.246V68.267C278.78,68.267,290.974,59.494,296.085,47.087z M281.604,392.533     h-17.067V273.98l54.093,133.222c-6.562,2.321-13.193,4.412-19.959,5.99v-3.063V409.6     C298.671,400.188,291.017,392.533,281.604,392.533z M230.404,409.6h51.2v17.067c0,9.412-7.663,17.067-17.067,17.067h-17.067     c-9.412,0-17.067-7.654-17.067-17.067V409.6z M213.338,409.6v3.584c-6.895-1.604-13.696-3.61-20.369-5.99l54.289-135.04     c0.068,0.008,0.137,0.034,0.213,0.051v120.328h-17.067C220.992,392.533,213.338,400.188,213.338,409.6z M256.004,256     c-14.114,0-25.6-11.486-25.6-25.6s11.486-25.6,25.6-25.6c14.114,0,25.6,11.486,25.6,25.6S270.118,256,256.004,256z      M230.404,17.067h51.2v17.067c0,0.486-0.102,0.947-0.145,1.425c-0.009,0.026-0.026,0.051-0.034,0.077     c-0.009,0.068,0.017,0.119,0.008,0.179c-0.862,8.619-8.064,15.386-16.896,15.386h-17.067c-8.832,0-16.034-6.767-16.905-15.386     c0-0.06,0.026-0.111,0.009-0.179c-0.009-0.026-0.017-0.051-0.026-0.077c-0.043-0.478-0.145-0.939-0.145-1.425V17.067z      M215.932,47.104c5.111,12.399,17.306,21.163,31.539,21.163v120.329c-5.436,1.109-10.479,3.277-14.959,6.246l-81.016-81.016     c1.28-3.593,2.108-7.398,2.108-11.426V85.333c0-3.738-1.246-7.168-3.285-9.975C170.167,61.815,192.516,52.207,215.932,47.104z      M85.338,85.333h51.2V102.4c0,9.412-7.663,17.067-17.067,17.067h-17.067c-2.62,0-5.069-0.64-7.287-1.69     c-0.009-0.009-0.009-0.017-0.017-0.026s-0.026-0.009-0.043-0.017c-5.726-2.756-9.719-8.568-9.719-15.334V85.333z M94.17,135.415     c2.654,0.666,5.385,1.118,8.235,1.118h17.067c8.508,0,16.205-3.243,22.195-8.405l78.78,78.78     c-2.97,4.471-5.146,9.523-6.238,14.959H102.404v-8.533c0-9.412-7.663-17.067-17.067-17.067H71.437     C75.371,174.729,83.017,154.334,94.17,135.415z M51.204,247.467c-9.412,0-17.067-7.654-17.067-17.067v-17.067h51.2V230.4     c0,9.412-7.663,17.067-17.067,17.067H51.204z M136.538,375.467c0,9.412-7.663,17.067-17.067,17.067h-17.067     c-9.412,0-17.067-7.654-17.067-17.067V358.4h51.2V375.467z M133.005,341.333H104.7c-16.785-22.878-28.177-49.271-33.254-77.124     c14.421-1.348,26.189-11.597,29.747-25.276h113.015c1.092,5.436,3.268,10.487,6.238,14.959L133.005,341.333z M151.659,386.338     c1.169-3.43,1.946-7.049,1.946-10.871V358.4c0-3.806-1.289-7.287-3.405-10.129l80.367-80.367l-53.367,132.77     C168.324,396.561,159.782,391.782,151.659,386.338z M354.266,494.933H157.692l28.911-71.902c8.858,3.2,17.946,5.717,27.145,7.654     c2.014,16.913,16.273,30.114,33.724,30.114h17.067c17.451,0,31.71-13.201,33.724-30.114c9.097-1.92,18.082-4.386,26.854-7.535     L354.266,494.933z M358.822,379.554c0.008,0.29-0.094,0.555-0.051,0.853c0.051,0.316,0.171,0.614,0.222,0.93     c0.188,1.05,0.469,2.039,0.742,3.038c0.188,0.7,0.273,1.434,0.512,2.116c-8.175,5.47-16.862,10.155-25.805,14.268     l-54.596-134.451l81.963,81.963c-2.116,2.842-3.405,6.323-3.405,10.129v17.067C358.404,376.866,358.652,378.197,358.822,379.554z      M426.671,375.467c0,9.412-7.654,17.067-17.067,17.067h-17.067c-6.007,0-11.273-3.14-14.319-7.842     c-0.631-0.973-1.126-1.997-1.545-3.038c-0.137-0.341-0.222-0.7-0.333-1.058c-0.23-0.734-0.444-1.476-0.58-2.244     c-0.154-0.939-0.29-1.894-0.29-2.884V358.4h51.2V375.467z M407.3,341.333h-28.297l-87.441-87.441     c2.97-4.471,5.137-9.523,6.238-14.959h113.016c3.558,13.679,15.317,23.927,29.747,25.276     C435.486,292.062,424.094,318.456,407.3,341.333z M426.671,230.426c0-0.008,0.009-0.017,0.009-0.026     c0-0.017-0.009-0.026-0.009-0.043v-17.024h51.2V230.4c0,9.412-7.654,17.067-17.067,17.067h-17.067     C434.334,247.467,426.688,239.829,426.671,230.426z" fill="#2edb82"/><path d="M503.471,494.933h-17.067c-4.719,0-8.533,3.823-8.533,8.533s3.814,8.533,8.533,8.533h17.067     c4.719,0,8.533-3.823,8.533-8.533S508.19,494.933,503.471,494.933z" fill="#2edb82"/><path d="M256.26,221.867h-0.094c-4.702,0-8.482,3.823-8.482,8.533s3.857,8.533,8.576,8.533c4.71,0,8.533-3.823,8.533-8.533     S260.971,221.867,256.26,221.867z" fill="#2edb82"/></g><g transform="matrix(0.09391262183546856 0.011048543998074551 -0.011048543998074551 0.09391262183546856 290.78679607362716 35.12994154661297)" id="L1_6"><path d="M435.2,477.867c4.71,0,8.533-3.823,8.533-8.533v-204.8c0-4.71-3.823-8.533-8.533-8.533H76.8     c-4.71,0-8.533,3.823-8.533,8.533v204.8c0,4.71,3.823,8.533,8.533,8.533s8.533-3.823,8.533-8.533V273.067h102.4v196.267     c0,4.71,3.823,8.533,8.533,8.533s8.533-3.823,8.533-8.533V273.067h221.867v196.267C426.667,474.044,430.49,477.867,435.2,477.867     z" fill="#2edb82"/><path d="M401.067,324.267c2.185,0,4.369-0.836,6.033-2.5c3.337-3.337,3.337-8.73,0-12.066l-17.067-17.067     c-3.336-3.337-8.73-3.337-12.066,0c-3.336,3.337-3.336,8.73,0,12.066l17.067,17.067     C396.698,323.43,398.882,324.267,401.067,324.267z" fill="#2edb82"/><path d="M503.467,494.933h-8.533v-268.8c0-4.71-3.823-8.533-8.533-8.533s-8.533,3.823-8.533,8.533v268.8h-85.333v-51.2h8.533     c4.71,0,8.533-3.823,8.533-8.533s-3.823-8.533-8.533-8.533h-34.133c-4.71,0-8.533,3.823-8.533,8.533s3.823,8.533,8.533,8.533     h8.533v51.2h-51.2V409.6h42.667c4.71,0,8.533-3.823,8.533-8.533s-3.823-8.533-8.533-8.533h-102.4     c-4.71,0-8.533,3.823-8.533,8.533s3.823,8.533,8.533,8.533H307.2v85.333H256v-51.2h8.533c4.71,0,8.533-3.823,8.533-8.533     s-3.823-8.533-8.533-8.533H230.4c-4.71,0-8.533,3.823-8.533,8.533s3.823,8.533,8.533,8.533h8.533v51.2h-204.8v-268.8     c0-4.71-3.823-8.533-8.533-8.533c-4.71,0-8.533,3.823-8.533,8.533v268.8H8.533c-4.71,0-8.533,3.823-8.533,8.533     S3.823,512,8.533,512h494.933c4.71,0,8.533-3.823,8.533-8.533S508.177,494.933,503.467,494.933z" fill="#2edb82"/><path d="M469.333,0H42.667C19.14,0,0,19.14,0,42.667v152.738c0,2.569,1.152,4.992,3.132,6.613c1.988,1.613,4.591,2.27,7.1,1.749     c13.628-2.765,25.114-10.897,32.427-21.914c9.173,13.824,24.883,22.946,42.675,22.946c17.792,0,33.485-9.114,42.667-22.921     c9.182,13.807,24.883,22.921,42.667,22.921s33.485-9.114,42.667-22.921C222.515,195.686,238.217,204.8,256,204.8     c17.784,0,33.485-9.114,42.667-22.921c9.182,13.807,24.883,22.921,42.667,22.921c17.792,0,33.485-9.114,42.667-22.921     c9.182,13.807,24.883,22.921,42.667,22.921c17.792,0,33.502-9.122,42.675-22.946c7.313,11.017,18.799,19.149,32.427,21.914     c2.509,0.538,5.112-0.128,7.1-1.749c1.98-1.621,3.132-4.045,3.132-6.613V42.667C512,19.14,492.86,0,469.333,0z M494.933,183.159     c-10.3-5.973-17.067-17.143-17.067-29.559V42.667c0-4.71-3.823-8.533-8.533-8.533s-8.533,3.823-8.533,8.533V153.6     c0,18.825-15.309,34.133-34.133,34.133s-34.133-15.309-34.133-34.133V42.667c0-4.71-3.823-8.533-8.533-8.533     s-8.533,3.823-8.533,8.533V153.6c0,18.825-15.309,34.133-34.133,34.133c-18.825,0-34.133-15.309-34.133-34.133V42.667     c0-4.71-3.823-8.533-8.533-8.533s-8.533,3.823-8.533,8.533V153.6c0,18.825-15.309,34.133-34.133,34.133     c-18.825,0-34.133-15.309-34.133-34.133V42.667c0-4.71-3.823-8.533-8.533-8.533c-4.71,0-8.533,3.823-8.533,8.533V153.6     c0,18.825-15.309,34.133-34.133,34.133s-34.133-15.309-34.133-34.133V42.667c0-4.71-3.823-8.533-8.533-8.533     s-8.533,3.823-8.533,8.533V153.6c0,18.825-15.309,34.133-34.133,34.133c-18.825,0-34.133-15.309-34.133-34.133V42.667     c0-4.71-3.823-8.533-8.533-8.533c-4.71,0-8.533,3.823-8.533,8.533V153.6c0,12.416-6.767,23.586-17.067,29.559V42.667     c0-14.114,11.486-25.6,25.6-25.6h426.667c14.114,0,25.6,11.486,25.6,25.6V183.159z" fill="#2edb82"/><path d="M153.6,366.933V384c0,4.71,3.823,8.533,8.533,8.533c4.71,0,8.533-3.823,8.533-8.533v-17.067     c0-4.71-3.823-8.533-8.533-8.533C157.423,358.4,153.6,362.223,153.6,366.933z" fill="#2edb82"/><path d="M343.834,309.7c-3.337,3.337-3.337,8.73,0,12.066l34.133,34.133c1.664,1.664,3.849,2.5,6.033,2.5     c2.185,0,4.369-0.836,6.033-2.5c3.337-3.337,3.337-8.73,0-12.066L355.9,309.7C352.563,306.364,347.17,306.364,343.834,309.7z" fill="#2edb82"/></g><g transform="matrix(0.11600970907781229 -0.013810680037191282 0.013810680037191282 0.11600970907781229 10.765980386559086 259.83704856560104)" id="L1_7"><path d="M469.333,290.133c4.719,0,8.533-3.823,8.533-8.533v-34.133c0-4.71-3.814-8.533-8.533-8.533h-42.667V230.4     c0-4.71-3.814-8.533-8.533-8.533s-8.533,3.823-8.533,8.533v8.533H170.667V230.4c0-4.71-3.823-8.533-8.533-8.533     c-4.71,0-8.533,3.823-8.533,8.533v8.533h-42.667c-4.71,0-8.533,3.823-8.533,8.533V281.6c0,4.71,3.823,8.533,8.533,8.533h51.2h256     H469.333z M119.467,273.067V256H460.8v17.067H119.467z" fill="#2edb82"/><path d="M307.2,187.733c-13.798,0-22.716,10.487-23.689,11.691c-2.953,3.627-2.406,8.926,1.203,11.913     c3.618,2.995,8.969,2.475,11.998-1.092c0.034-0.06,4.659-5.444,10.487-5.444s10.445,5.385,10.445,5.385     c1.69,2.074,4.147,3.149,6.63,3.149c1.894,0,3.789-0.623,5.376-1.911c3.661-2.97,4.207-8.346,1.237-11.998     C329.916,198.221,320.998,187.733,307.2,187.733z" fill="#2edb82"/><path d="M469.333,358.4c4.719,0,8.533-3.823,8.533-8.533v-34.133c0-4.71-3.814-8.533-8.533-8.533h-42.667v-8.533     c0-4.71-3.814-8.533-8.533-8.533s-8.533,3.823-8.533,8.533v8.533H170.667v-8.533c0-4.71-3.823-8.533-8.533-8.533     c-4.71,0-8.533,3.823-8.533,8.533v8.533h-42.667c-4.71,0-8.533,3.823-8.533,8.533v34.133c0,4.71,3.823,8.533,8.533,8.533h51.2     h256H469.333z M119.467,341.333v-17.067H460.8v17.067H119.467z" fill="#2edb82"/><path d="M351.778,167.509c1.69,2.082,4.147,3.157,6.63,3.157c1.894,0,3.789-0.623,5.376-1.911     c3.661-2.97,4.207-8.346,1.237-11.998c-0.973-1.203-9.89-11.691-23.689-11.691s-22.716,10.487-23.689,11.691     c-2.953,3.627-2.406,8.926,1.203,11.913c3.618,3.004,8.969,2.475,11.989-1.092c0.043-0.06,4.668-5.444,10.496-5.444     C347.162,162.133,351.778,167.509,351.778,167.509z" fill="#2edb82"/><path d="M8.576,111.787c0.435,4.361,4.105,7.68,8.491,7.68h51.2c4.386,0,8.055-3.319,8.491-7.68l8.533-85.333     c0.239-2.406-0.546-4.787-2.167-6.579c-1.613-1.784-3.908-2.807-6.323-2.807H51.2V8.533C51.2,3.823,47.377,0,42.667,0     c-4.71,0-8.533,3.823-8.533,8.533v8.533h-25.6c-2.415,0-4.71,1.024-6.323,2.807c-1.621,1.792-2.406,4.173-2.167,6.579     L8.576,111.787z M67.371,34.133L60.544,102.4H24.789l-6.827-68.267H67.371z" fill="#2edb82"/><path d="M238.933,196.267c0,9.54,3.9,18.415,10.982,24.977c1.638,1.519,3.721,2.278,5.803,2.278c2.287,0,4.574-0.922,6.255-2.731     c3.2-3.456,3.004-8.858-0.452-12.066c-3.567-3.294-5.521-7.723-5.521-12.459c0-7.066,4.497-13.474,11.204-15.94     c2.782-1.024,4.83-3.422,5.41-6.332c0.589-2.91-0.393-5.914-2.56-7.936c-3.567-3.294-5.521-7.723-5.521-12.459     c0-8.875,6.989-16.299,15.906-16.913c3.277-0.222,6.127-2.295,7.347-5.342c1.212-3.046,0.58-6.519-1.638-8.934     c-2.935-3.2-4.548-7.279-4.548-11.477c0-8.875,6.989-16.299,15.906-16.913c3.277-0.222,6.127-2.295,7.347-5.342     c1.212-3.046,0.58-6.519-1.638-8.934c-2.927-3.2-4.548-7.279-4.548-11.477c0-7.629,5.197-14.362,12.629-16.375     c2.364-0.64,4.326-2.253,5.41-4.429c1.092-2.176,1.195-4.727,0.282-6.98c-0.828-2.091-1.254-4.224-1.254-6.349     c0-9.412,7.654-17.067,17.067-17.067c9.412,0,17.067,7.654,17.067,17.067c0,2.125-0.427,4.258-1.254,6.349     c-0.913,2.253-0.811,4.804,0.282,6.98c1.084,2.176,3.046,3.789,5.41,4.429c7.433,2.014,12.629,8.747,12.629,16.375     c0,4.198-1.621,8.277-4.548,11.477c-2.219,2.415-2.85,5.888-1.638,8.934c1.22,3.046,4.07,5.12,7.347,5.342     c8.917,0.614,15.906,8.038,15.906,16.913c0,4.198-1.621,8.277-4.548,11.477c-2.219,2.415-2.85,5.888-1.638,8.934     c1.22,3.046,4.07,5.12,7.347,5.342c8.917,0.614,15.906,8.038,15.906,16.913c0,4.736-1.954,9.165-5.521,12.459     c-2.167,2.022-3.149,5.026-2.56,7.936c0.58,2.91,2.628,5.308,5.419,6.332c6.699,2.466,11.196,8.875,11.196,15.94     c0,4.71,3.814,8.533,8.533,8.533s8.533-3.823,8.533-8.533c0-10.394-4.821-20.062-12.663-26.428     c2.697-4.924,4.13-10.462,4.13-16.239c0-13.346-7.851-25.071-19.302-30.618c1.468-3.823,2.236-7.902,2.236-12.049     c0-13.346-7.851-25.071-19.302-30.618c1.468-3.823,2.236-7.902,2.236-12.049c0-12.442-6.844-23.68-17.374-29.628     c0.205-1.493,0.307-2.995,0.307-4.506C366.933,15.309,351.625,0,332.8,0c-18.825,0-34.133,15.309-34.133,34.133     c0,1.51,0.102,3.012,0.307,4.506c-10.53,5.948-17.374,17.186-17.374,29.628c0,4.147,0.768,8.226,2.236,12.049     c-11.452,5.547-19.302,17.271-19.302,30.618c0,4.147,0.768,8.226,2.236,12.049c-11.452,5.547-19.302,17.271-19.302,30.618     c0,5.777,1.434,11.315,4.13,16.239C243.755,176.205,238.933,185.873,238.933,196.267z" fill="#2edb82"/><path d="M321.016,118.793c4.335,1.792,9.327-0.273,11.145-4.608c0.162-0.41,0.401-0.862,0.64-1.306     c0.239,0.427,0.461,0.87,0.623,1.271c1.348,3.311,4.54,5.325,7.91,5.325c1.075,0,2.159-0.205,3.208-0.64     c4.369-1.766,6.477-6.75,4.702-11.11c-0.947-2.313-6.152-13.858-16.444-13.858c-10.291,0-15.497,11.546-16.444,13.858     C314.59,112.068,316.681,117.001,321.016,118.793z" fill="#2edb82"/><path d="M503.467,494.933H366.933c-4.719,0-8.533,3.823-8.533,8.533s3.814,8.533,8.533,8.533h136.533     c4.719,0,8.533-3.823,8.533-8.533S508.186,494.933,503.467,494.933z" fill="#2edb82"/><path d="M503.467,375.467h-76.8v-8.533c0-4.71-3.814-8.533-8.533-8.533s-8.533,3.823-8.533,8.533v8.533H170.667v-8.533     c0-4.71-3.823-8.533-8.533-8.533c-4.71,0-8.533,3.823-8.533,8.533v8.533H76.8c-4.71,0-8.533,3.823-8.533,8.533v34.133     c0,4.71,3.823,8.533,8.533,8.533h25.6v42.667c0,4.71,3.823,8.533,8.533,8.533s8.533-3.823,8.533-8.533v-42.667H460.8v42.667     c0,4.71,3.814,8.533,8.533,8.533s8.533-3.823,8.533-8.533v-42.667h25.6c4.719,0,8.533-3.823,8.533-8.533V384     C512,379.29,508.186,375.467,503.467,375.467z M494.933,409.6h-409.6v-17.067h409.6V409.6z" fill="#2edb82"/><path d="M128,494.933H51.2V145.067c0-4.71-3.823-8.533-8.533-8.533c-4.71,0-8.533,3.823-8.533,8.533v349.867h-25.6     c-4.71,0-8.533,3.823-8.533,8.533S3.823,512,8.533,512H128c4.71,0,8.533-3.823,8.533-8.533S132.71,494.933,128,494.933z" fill="#2edb82"/><path d="M332.8,494.933h-17.067c-4.719,0-8.533,3.823-8.533,8.533s3.814,8.533,8.533,8.533H332.8     c4.719,0,8.533-3.823,8.533-8.533S337.519,494.933,332.8,494.933z" fill="#2edb82"/><path d="M264.533,494.933H179.2c-4.71,0-8.533,3.823-8.533,8.533S174.49,512,179.2,512h85.333c4.719,0,8.533-3.823,8.533-8.533     S269.252,494.933,264.533,494.933z" fill="#2edb82"/></g><g transform="matrix(0.1171875 0 0 0.1171875 271 144)" id="L1_8"><path d="M128,435.207H8.533C3.814,435.207,0,439.03,0,443.74c0,4.71,3.814,8.533,8.533,8.533H128     c4.719,0,8.533-3.823,8.533-8.533C136.533,439.03,132.719,435.207,128,435.207z" fill="#2edb82"/><path d="M102.4,418.123c56.465,0,102.4-45.944,102.4-102.4c0-28.271-11.273-54.596-31.744-74.129     c-3.396-3.243-8.815-3.115-12.066,0.282c-3.251,3.413-3.123,8.815,0.282,12.066c17.058,16.282,26.462,38.212,26.462,61.781     c0,47.053-38.281,85.333-85.333,85.333s-85.333-38.281-85.333-85.333c0-47.061,38.281-85.333,85.333-85.333     c4.719,0,8.533-3.823,8.533-8.533c0-4.719-3.814-8.533-8.533-8.533c-56.465,0-102.4,45.935-102.4,102.4     C0,372.179,45.935,418.123,102.4,418.123z" fill="#2edb82"/><path d="M145.067,179.189h4.326l-49.297,119.697c-8.311,1.135-14.763,8.209-14.763,16.836c0,9.412,7.654,17.067,17.067,17.067     c9.412,0,17.067-7.654,17.067-17.067c0-3.908-1.365-7.458-3.584-10.342l48.154-116.924l54.008,78.413     c2.662,3.883,7.962,4.872,11.861,2.193c3.891-2.679,4.864-7.987,2.185-11.87l-53.726-78.003h17.903     c14.114,0,25.6-11.486,25.6-25.6c0-14.123-11.486-25.6-25.6-25.6h-51.2c-4.719,0-8.533,3.814-8.533,8.533v34.133     C136.533,175.367,140.348,179.189,145.067,179.189z M153.6,145.056h42.667c4.71,0,8.533,3.823,8.533,8.533     c0,4.702-3.823,8.533-8.533,8.533H153.6V145.056z" fill="#2edb82"/><path d="M401.067,221.856c0,4.71,3.814,8.533,8.533,8.533c47.053,0,85.333,38.272,85.333,85.333     c0,47.053-38.281,85.333-85.333,85.333s-85.333-38.281-85.333-85.333c0-25.574,11.324-49.579,31.087-65.877     c3.627-2.995,4.147-8.371,1.143-12.006c-2.995-3.627-8.363-4.164-12.015-1.16c-23.689,19.55-37.282,48.35-37.282,79.044     c0,56.456,45.935,102.4,102.4,102.4S512,372.179,512,315.723c0-56.465-45.935-102.4-102.4-102.4     C404.881,213.323,401.067,217.137,401.067,221.856z" fill="#2edb82"/><path d="M264.533,435.207H179.2c-4.719,0-8.533,3.823-8.533,8.533c0,4.71,3.814,8.533,8.533,8.533h85.333     c4.719,0,8.533-3.823,8.533-8.533C273.067,439.03,269.252,435.207,264.533,435.207z" fill="#2edb82"/><path d="M264.533,274.268v-26.812c4.719,0,8.533-3.823,8.533-8.533c0-4.719-3.814-8.533-8.533-8.533h-17.067     c-4.719,0-8.533,3.814-8.533,8.533c0,4.71,3.814,8.533,8.533,8.533v26.812c-14.686,3.814-25.6,17.058-25.6,32.922     c0,15.855,10.914,29.099,25.6,32.922v26.812c-4.719,0-8.533,3.814-8.533,8.533c0,4.71,3.814,8.533,8.533,8.533h17.067     c4.719,0,8.533-3.823,8.533-8.533c0-4.719-3.814-8.533-8.533-8.533v-26.812c14.686-3.823,25.6-17.067,25.6-32.922     C290.133,291.326,279.219,278.082,264.533,274.268z M256,324.256c-9.404,0-17.067-7.654-17.067-17.067     c0-9.412,7.663-17.067,17.067-17.067c9.412,0,17.067,7.654,17.067,17.067C273.067,316.602,265.412,324.256,256,324.256z" fill="#2edb82"/><path d="M396.45,304.971c-2.406,2.944-3.917,6.656-3.917,10.752c0,9.412,7.663,17.067,17.067,17.067s17.067-7.654,17.067-17.067     c0-8.448-6.187-15.428-14.242-16.785l-38.511-102.682h60.919c10.214,0,16.154-8.166,17.271-15.394l8.525-42.667     c0.503-2.509-0.145-5.111-1.766-7.083c-1.621-1.98-4.036-3.123-6.596-3.123h-76.8c-4.719,0-8.533,3.814-8.533,8.533     c0,4.71,3.814,8.533,8.533,8.533h66.389l-6.519,32.649c-0.128,0.589-0.495,1.417-0.503,1.485h-67.319l-26.718-71.262     c-0.017-0.034-0.043-0.051-0.051-0.085c-0.017-0.034-0.009-0.068-0.017-0.094l-17.067-42.667     c-1.749-4.378-6.758-6.477-11.093-4.753c-4.378,1.749-6.511,6.716-4.762,11.093l15.548,38.835l-32.094,56.166     c-2.347,4.088-0.922,9.301,3.174,11.64c1.331,0.759,2.79,1.126,4.224,1.126c2.97,0,5.845-1.544,7.415-4.301l25.122-43.955     l20.531,54.758l-65.033,73.156c-3.14,3.524-2.816,8.917,0.708,12.049c1.621,1.451,3.644,2.159,5.666,2.159     c2.347,0,4.693-0.973,6.374-2.867l59.059-66.432L396.45,304.971z" fill="#2edb82"/><path d="M503.467,435.207H366.933c-4.719,0-8.533,3.823-8.533,8.533c0,4.71,3.814,8.533,8.533,8.533h136.533     c4.719,0,8.533-3.823,8.533-8.533C512,439.03,508.186,435.207,503.467,435.207z" fill="#2edb82"/><path d="M332.8,435.207h-17.067c-4.719,0-8.533,3.823-8.533,8.533c0,4.71,3.814,8.533,8.533,8.533H332.8     c4.719,0,8.533-3.823,8.533-8.533C341.333,439.03,337.519,435.207,332.8,435.207z" fill="#2edb82"/></g><g transform="matrix(0.11600970476865768 0 0 0.11600970476865768 87.30151557922363 9.301515579223633)" id="L1_9"><path d="M503.467,494.933h-59.733V486.4c0-4.71-3.823-8.533-8.533-8.533s-8.533,3.823-8.533,8.533v8.533H358.4V486.4     c0-4.71-3.823-8.533-8.533-8.533s-8.533,3.823-8.533,8.533v8.533h-68.267V486.4c0-4.71-3.823-8.533-8.533-8.533     c-4.71,0-8.533,3.823-8.533,8.533v8.533h-68.267V486.4c0-4.71-3.823-8.533-8.533-8.533s-8.533,3.823-8.533,8.533v8.533H102.4     V486.4c0-4.71-3.823-8.533-8.533-8.533c-4.71,0-8.533,3.823-8.533,8.533v8.533H17.067v-435.2     c0-23.526,19.14-42.667,42.667-42.667S102.4,36.207,102.4,59.733v51.2c0,4.71,3.823,8.533,8.533,8.533s8.533-3.823,8.533-8.533     v-51.2C119.467,26.795,92.672,0,59.733,0S0,26.795,0,59.733v443.733C0,508.177,3.823,512,8.533,512h494.933     c4.71,0,8.533-3.823,8.533-8.533S508.177,494.933,503.467,494.933z" fill="#2edb82"/><path d="M196.267,375.467c4.71,0,8.533-3.823,8.533-8.533V221.867c0-9.412-7.663-17.067-17.067-17.067h-68.267     c-9.412,0-17.067,7.654-17.067,17.067v145.067c0,4.71,3.823,8.533,8.533,8.533s8.533-3.823,8.533-8.533V221.867h68.267v145.067     C187.733,371.644,191.556,375.467,196.267,375.467z" fill="#2edb82"/><path d="M34.133,401.067c0,4.71,3.823,8.533,8.533,8.533h409.6c4.71,0,8.533-3.823,8.533-8.533s-3.823-8.533-8.533-8.533h-409.6     C37.956,392.533,34.133,396.356,34.133,401.067z" fill="#2edb82"/><path d="M501.76,327.68L374.204,157.67c-0.529-0.87-13.312-21.137-41.412-21.137H42.667c-4.71,0-8.533,3.823-8.533,8.533     c0,4.71,3.823,8.533,8.533,8.533h290.125c18.304,0,26.564,12.535,27.315,13.653l92.169,122.88h-25.609V281.6     c0-4.71-3.823-8.533-8.533-8.533s-8.533,3.823-8.533,8.533v8.533h-68.267v-68.267h25.6c4.71,0,8.533-3.823,8.533-8.533     c0-4.71-3.823-8.533-8.533-8.533h-25.6c-9.404,0-17.067,7.654-17.067,17.067v68.267c0,9.412,7.663,17.067,17.067,17.067h123.742     l23.262,31.019c0.068,0.085,6.596,8.61,6.596,28.715v25.6H486.4c-4.71,0-8.533,3.823-8.533,8.533s3.823,8.533,8.533,8.533h8.533     v25.6c0,5.265-3.277,8.533-8.533,8.533H42.667c-4.71,0-8.533,3.823-8.533,8.533c0,4.71,3.823,8.533,8.533,8.533H486.4     c14.592,0,25.6-11.008,25.6-25.6v-68.267C512,340.361,502.494,328.508,501.76,327.68z" fill="#2edb82"/><path d="M68.267,204.8h-25.6c-4.71,0-8.533,3.823-8.533,8.533c0,4.71,3.823,8.533,8.533,8.533h25.6v68.267h-25.6     c-4.71,0-8.533,3.823-8.533,8.533s3.823,8.533,8.533,8.533h25.6c9.404,0,17.067-7.654,17.067-17.067v-68.267     C85.333,212.454,77.67,204.8,68.267,204.8z" fill="#2edb82"/><path d="M273.067,307.2c9.404,0,17.067-7.654,17.067-17.067v-68.267c0-9.412-7.663-17.067-17.067-17.067h-34.133     c-9.412,0-17.067,7.654-17.067,17.067v68.267c0,9.412,7.654,17.067,17.067,17.067H273.067z M238.933,221.867h34.133l0.008,68.267     h-34.142V221.867z" fill="#2edb82"/></g></defs><g fi:class="KUsePattern"><pattern id="pattern_L1_2" width="350" height="350" patternUnits="userSpaceOnUse"><use xlink:href="#L1_2" x="-350" y="-350"/><use xlink:href="#L1_2" x="0" y="-350"/><use xlink:href="#L1_2" x="350" y="-350"/><use xlink:href="#L1_2" x="-350" y="0"/><use xlink:href="#L1_2" x="0" y="0"/><use xlink:href="#L1_2" x="350" y="0"/><use xlink:href="#L1_2" x="-350" y="350"/><use xlink:href="#L1_2" x="0" y="350"/><use xlink:href="#L1_2" x="350" y="350"/></pattern><rect x="0" y="0" width="100%" height="100%" fill="url(#pattern_L1_2)"/></g><g fi:class="KUsePattern"><pattern id="pattern_L1_5" width="350" height="350" patternUnits="userSpaceOnUse"><use xlink:href="#L1_5" x="-350" y="-350"/><use xlink:href="#L1_5" x="0" y="-350"/><use xlink:href="#L1_5" x="350" y="-350"/><use xlink:href="#L1_5" x="-350" y="0"/><use xlink:href="#L1_5" x="0" y="0"/><use xlink:href="#L1_5" x="350" y="0"/><use xlink:href="#L1_5" x="-350" y="350"/><use xlink:href="#L1_5" x="0" y="350"/><use xlink:href="#L1_5" x="350" y="350"/></pattern><rect x="0" y="0" width="100%" height="100%" fill="url(#pattern_L1_5)"/></g><g fi:class="KUsePattern"><pattern id="pattern_L1_6" width="350" height="350" patternUnits="userSpaceOnUse"><use xlink:href="#L1_6" x="-350" y="-350"/><use xlink:href="#L1_6" x="0" y="-350"/><use xlink:href="#L1_6" x="350" y="-350"/><use xlink:href="#L1_6" x="-350" y="0"/><use xlink:href="#L1_6" x="0" y="0"/><use xlink:href="#L1_6" x="350" y="0"/><use xlink:href="#L1_6" x="-350" y="350"/><use xlink:href="#L1_6" x="0" y="350"/><use xlink:href="#L1_6" x="350" y="350"/></pattern><rect x="0" y="0" width="100%" height="100%" fill="url(#pattern_L1_6)"/></g><g fi:class="KUsePattern"><pattern id="pattern_L1_7" width="350" height="350" patternUnits="userSpaceOnUse"><use xlink:href="#L1_7" x="-350" y="-350"/><use xlink:href="#L1_7" x="0" y="-350"/><use xlink:href="#L1_7" x="350" y="-350"/><use xlink:href="#L1_7" x="-350" y="0"/><use xlink:href="#L1_7" x="0" y="0"/><use xlink:href="#L1_7" x="350" y="0"/><use xlink:href="#L1_7" x="-350" y="350"/><use xlink:href="#L1_7" x="0" y="350"/><use xlink:href="#L1_7" x="350" y="350"/></pattern><rect x="0" y="0" width="100%" height="100%" fill="url(#pattern_L1_7)"/></g><g fi:class="KUsePattern"><pattern id="pattern_L1_8" width="350" height="350" patternUnits="userSpaceOnUse"><use xlink:href="#L1_8" x="-350" y="-350"/><use xlink:href="#L1_8" x="0" y="-350"/><use xlink:href="#L1_8" x="350" y="-350"/><use xlink:href="#L1_8" x="-350" y="0"/><use xlink:href="#L1_8" x="0" y="0"/><use xlink:href="#L1_8" x="350" y="0"/><use xlink:href="#L1_8" x="-350" y="350"/><use xlink:href="#L1_8" x="0" y="350"/><use xlink:href="#L1_8" x="350" y="350"/></pattern><rect x="0" y="0" width="100%" height="100%" fill="url(#pattern_L1_8)"/></g><g fi:class="KUsePattern"><pattern id="pattern_L1_9" width="350" height="350" patternUnits="userSpaceOnUse"><use xlink:href="#L1_9" x="-350" y="-350"/><use xlink:href="#L1_9" x="0" y="-350"/><use xlink:href="#L1_9" x="350" y="-350"/><use xlink:href="#L1_9" x="-350" y="0"/><use xlink:href="#L1_9" x="0" y="0"/><use xlink:href="#L1_9" x="350" y="0"/><use xlink:href="#L1_9" x="-350" y="350"/><use xlink:href="#L1_9" x="0" y="350"/><use xlink:href="#L1_9" x="350" y="350"/></pattern><rect x="0" y="0" width="100%" height="100%" fill="url(#pattern_L1_9)"/></g></svg>